<svg xmlns="http://www.w3.org/2000/svg" xmlns:xlink="http://www.w3.org/1999/xlink" preserveAspectRatio="xMidYMid meet" version="1.0" viewBox="0.0 -0.0 500.0 746.4" zoomAndPan="magnify" style="fill: rgb(0, 0, 0);" original_string_length="1164" width="500px" height="746px"><g id="__id1_s5huugn6ol"><path d="M 415.625 174.738281 L 414.535156 174.738281 C 429.25 161.402344 439.246094 142.296875 424.480469 117.707031 C 393.113281 65.46875 284.308594 16.019531 250 -0.00390625 C 215.691406 16.019531 106.886719 65.46875 75.519531 117.707031 C 60.753906 142.296875 70.75 161.402344 85.464844 174.738281 L 84.375 174.738281 C 37.777344 174.738281 0 212.515625 0 259.117188 L 0 487.273438 C 0 533.871094 37.777344 571.648438 84.375 571.648438 L 85.464844 571.648438 C 70.75 584.984375 60.753906 604.089844 75.519531 628.679688 C 106.886719 680.917969 215.691406 730.371094 250 746.390625 C 284.308594 730.371094 393.113281 680.917969 424.480469 628.679688 C 439.246094 604.089844 429.25 584.984375 414.535156 571.648438 L 415.625 571.648438 C 462.222656 571.648438 500 533.871094 500 487.273438 L 500 259.117188 C 500 212.515625 462.222656 174.738281 415.625 174.738281" style="fill: rgb(255, 232, 228);"></path></g></svg>